<svg xmlns="http://www.w3.org/2000/svg" width="25.883" height="25.883" viewBox="1294 1207 25.883 25.883"><path d="M1310.888 1223.173c0 2.45-2.295 2.394-2.538 2.394h-4.673v-4.72h4.673c2.46 0 2.538 1.843 2.538 2.326Zm-2.898-4.225c.039 0 2.221.058 2.221-2.098 0-.897-.203-2.072-2.22-2.072h-4.314v4.17h4.313Zm11.893-7.634v17.255a4.327 4.327 0 0 1-4.314 4.314h-17.255a4.327 4.327 0 0 1-4.314-4.314v-17.255a4.327 4.327 0 0 1 4.314-4.314h17.255a4.327 4.327 0 0 1 4.314 4.314Zm-6.352 12.202c0-1.247-.384-3.368-2.834-3.892v-.042c1.324-.565 2.157-1.632 2.157-3.214 0-.405.116-3.743-4.483-3.743h-7.337v15.098c7.408 0 8.08.097 9.452-.33.82-.255 3.045-1.038 3.045-3.877Z" fill="#fff" fill-rule="evenodd" data-name="Icon awesome-bootstrap"/></svg>