<svg xmlns="http://www.w3.org/2000/svg" width="28.851" height="25.966" viewBox="2.885 4.328 28.851 25.966"><path d="M14.426 23.08V21.64H4.342l-.015 5.77a2.875 2.875 0 0 0 2.885 2.885H27.41a2.875 2.875 0 0 0 2.885-2.885v-5.77H20.196v1.442h-5.77ZM28.85 10.099h-5.785V7.213l-2.885-2.885h-5.77l-2.885 2.885v2.885H5.77a2.894 2.894 0 0 0-2.885 2.885v4.328a2.875 2.875 0 0 0 2.885 2.886h8.656v-2.886h5.77v2.886h8.655a2.894 2.894 0 0 0 2.885-2.885v-4.329a2.894 2.894 0 0 0-2.885-2.885Zm-8.655 0h-5.77V7.213h5.77v2.885Z" fill="#fff" fill-rule="evenodd" data-name="Tracé 2"/></svg>