<svg xmlns="http://www.w3.org/2000/svg" width="30.452" height="24.107" viewBox="994 1207 30.452 24.107"><path d="M1014.07 1226.231c.074-.057.142-.125.207-.19a2.893 2.893 0 0 0 0-4.02l-9.9-10.151c-.068.063-.138.125-.202.193a2.89 2.89 0 0 0 0 4.022l9.895 10.146Zm7.267-14.463c.764.153 1.461.54 1.995 1.108 1.492 1.573 1.492 4.124 0 5.697l-7.05 7.419a2.722 2.722 0 0 1-1.647.808l4.192 4.307-21.71-4.768a3.804 3.804 0 0 1-1.994-1.114c-1.497-1.57-1.497-4.12 0-5.702l7.044-7.407a2.701 2.701 0 0 1 1.654-.816l-4.195-4.3 21.71 4.768Z" fill="#fff" fill-rule="evenodd" data-name="Icon simple-boost"/></svg>